<?xml version="1.0" encoding="UTF-8"?>
<svg width="1302px" height="270px" viewBox="0 0 1302 270" version="1.1" xmlns="http://www.w3.org/2000/svg" xmlns:xlink="http://www.w3.org/1999/xlink">
    <!-- Generator: Sketch 62 (91390) - https://sketch.com -->
    <title>logo_terminal_assets</title>
    <desc>Created with Sketch.</desc>
    <g id="terminal" stroke="none" stroke-width="1" fill="none" fill-rule="evenodd">
        <g id="A2" transform="translate(-28.000000, -481.000000)" fill="#B5F6EB">
            <g id="logo_terminal_assets" transform="translate(28.000000, 481.000000)">
                <g id="icon-copy">
                    <path d="M387,0 L23,0 C10.2974508,0 0,10.2974508 0,23 L0,247 C0,259.702549 10.2974508,270 23,270 L387,270 C399.702549,270 410,259.702549 410,247 L410,23 C410,10.2974508 399.702549,0 387,0 Z M380,30 L380,240 L30,240 L30,30 L380,30 Z" id="Rectangle" fill-rule="nonzero"></path>
                    <rect id="Rectangle-Copy" x="61" y="180" width="29" height="29" rx="14.5"></rect>
                    <rect id="Rectangle-Copy-2" x="110" y="151" width="29" height="29" rx="14.5"></rect>
                    <rect id="Rectangle-Copy-3" x="159" y="117" width="29" height="63" rx="14.5"></rect>
                    <rect id="Rectangle-Copy-4" x="208" y="171" width="29" height="29" rx="14.5"></rect>
                    <rect id="Rectangle-Copy-5" x="257" y="131" width="29" height="29" rx="14.5"></rect>
                    <rect id="Rectangle-Copy-6" x="306" y="92" width="29" height="79" rx="14.5"></rect>
                </g>
                <path d="M483.6,92.64 C489.52,92.64 494.773333,91.4666667 499.36,89.12 C503.946667,86.7733333 507.506667,83.48 510.04,79.24 C512.573333,75 513.84,70.1333333 513.84,64.64 C513.84,59.1466667 512.573333,54.28 510.04,50.04 C507.506667,45.8 503.946667,42.5066667 499.36,40.16 C494.773333,37.8133333 489.52,36.64 483.6,36.64 L483.6,36.64 L460,36.64 L460,92.64 L483.6,92.64 Z M483.12,85.68 L468,85.68 L468,43.6 L483.12,43.6 C487.653333,43.6 491.64,44.48 495.08,46.24 C498.52,48 501.173333,50.4666667 503.04,53.64 C504.906667,56.8133333 505.84,60.48 505.84,64.64 C505.84,68.8 504.906667,72.4666667 503.04,75.64 C501.173333,78.8133333 498.52,81.28 495.08,83.04 C491.64,84.8 487.653333,85.68 483.12,85.68 L483.12,85.68 Z M549.08,92.64 L549.08,36.64 L541.08,36.64 L541.08,92.64 L549.08,92.64 Z M606.16,93.28 C610.16,93.28 614,92.6666667 617.68,91.44 C621.36,90.2133333 624.586667,88.4533333 627.36,86.16 L627.36,86.16 L627.36,64.32 L619.68,64.32 L619.68,82.56 C615.946667,84.96 611.573333,86.16 606.56,86.16 C602.346667,86.16 598.546667,85.2266667 595.16,83.36 C591.773333,81.4933333 589.12,78.92 587.2,75.64 C585.28,72.36 584.32,68.6933333 584.32,64.64 C584.32,60.5333333 585.28,56.84 587.2,53.56 C589.12,50.28 591.773333,47.72 595.16,45.88 C598.546667,44.04 602.373333,43.12 606.64,43.12 C612.986667,43.12 618.4,45.28 622.88,49.6 L622.88,49.6 L627.84,44.64 C625.28,41.8133333 622.173333,39.6666667 618.52,38.2 C614.866667,36.7333333 610.8,36 606.32,36 C600.613333,36 595.48,37.2266667 590.92,39.68 C586.36,42.1333333 582.786667,45.5466667 580.2,49.92 C577.613333,54.2933333 576.32,59.2 576.32,64.64 C576.32,70.08 577.613333,74.9733333 580.2,79.32 C582.786667,83.6666667 586.346667,87.08 590.88,89.56 C595.413333,92.04 600.506667,93.28 606.16,93.28 Z M665.64,92.64 L665.64,36.64 L657.64,36.64 L657.64,92.64 L665.64,92.64 Z M716.48,92.64 L716.48,43.6 L735.68,43.6 L735.68,36.64 L689.36,36.64 L689.36,43.6 L708.56,43.6 L708.56,92.64 L716.48,92.64 Z M756.36,92.64 L762.52,78.64 L792.28,78.64 L798.44,92.64 L806.84,92.64 L781.4,36.64 L773.48,36.64 L748.12,92.64 L756.36,92.64 Z M789.48,72.24 L765.32,72.24 L777.4,44.8 L789.48,72.24 Z M868.48,92.64 L868.48,85.68 L838.16,85.68 L838.16,36.64 L830.16,36.64 L830.16,92.64 L868.48,92.64 Z M928.96,92.64 L935.12,78.64 L964.88,78.64 L971.04,92.64 L979.44,92.64 L954,36.64 L946.08,36.64 L920.72,92.64 L928.96,92.64 Z M962.08,72.24 L937.92,72.24 L950,44.8 L962.08,72.24 Z M1019.08,93.28 C1023.82667,93.28 1027.82667,92.5733333 1031.08,91.16 C1034.33333,89.7466667 1036.76,87.8266667 1038.36,85.4 C1039.96,82.9733333 1040.76,80.2933333 1040.76,77.36 C1040.76,73.84 1039.84,71.04 1038,68.96 C1036.16,66.88 1033.96,65.3333333 1031.4,64.32 C1028.84,63.3066667 1025.45333,62.2933333 1021.24,61.28 C1017.98667,60.5333333 1015.41333,59.8266667 1013.52,59.16 C1011.62667,58.4933333 1010.04,57.56 1008.76,56.36 C1007.48,55.16 1006.84,53.6 1006.84,51.68 C1006.84,49.0666667 1007.97333,46.9333333 1010.24,45.28 C1012.50667,43.6266667 1015.90667,42.8 1020.44,42.8 C1023,42.8 1025.61333,43.1866667 1028.28,43.96 C1030.94667,44.7333333 1033.45333,45.8666667 1035.8,47.36 L1035.8,47.36 L1038.44,40.96 C1036.14667,39.36 1033.4,38.1333333 1030.2,37.28 C1027,36.4266667 1023.74667,36 1020.44,36 C1015.69333,36 1011.72,36.72 1008.52,38.16 C1005.32,39.6 1002.93333,41.52 1001.36,43.92 C999.786667,46.32 999,49.0133333 999,52 C999,55.5733333 999.92,58.4133333 1001.76,60.52 C1003.6,62.6266667 1005.81333,64.1866667 1008.4,65.2 C1010.98667,66.2133333 1014.38667,67.2266667 1018.6,68.24 C1021.96,69.04 1024.56,69.76 1026.4,70.4 C1028.24,71.04 1029.78667,71.96 1031.04,73.16 C1032.29333,74.36 1032.92,75.92 1032.92,77.84 C1032.92,80.4533333 1031.77333,82.5466667 1029.48,84.12 C1027.18667,85.6933333 1023.72,86.48 1019.08,86.48 C1015.56,86.48 1012.13333,85.88 1008.8,84.68 C1005.46667,83.48 1002.73333,81.92 1000.6,80 L1000.6,80 L997.64,86.24 C999.88,88.32 1002.96,90.0133333 1006.88,91.32 C1010.8,92.6266667 1014.86667,93.28 1019.08,93.28 Z M1083.76,93.28 C1088.50667,93.28 1092.50667,92.5733333 1095.76,91.16 C1099.01333,89.7466667 1101.44,87.8266667 1103.04,85.4 C1104.64,82.9733333 1105.44,80.2933333 1105.44,77.36 C1105.44,73.84 1104.52,71.04 1102.68,68.96 C1100.84,66.88 1098.64,65.3333333 1096.08,64.32 C1093.52,63.3066667 1090.13333,62.2933333 1085.92,61.28 C1082.66667,60.5333333 1080.09333,59.8266667 1078.2,59.16 C1076.30667,58.4933333 1074.72,57.56 1073.44,56.36 C1072.16,55.16 1071.52,53.6 1071.52,51.68 C1071.52,49.0666667 1072.65333,46.9333333 1074.92,45.28 C1077.18667,43.6266667 1080.58667,42.8 1085.12,42.8 C1087.68,42.8 1090.29333,43.1866667 1092.96,43.96 C1095.62667,44.7333333 1098.13333,45.8666667 1100.48,47.36 L1100.48,47.36 L1103.12,40.96 C1100.82667,39.36 1098.08,38.1333333 1094.88,37.28 C1091.68,36.4266667 1088.42667,36 1085.12,36 C1080.37333,36 1076.4,36.72 1073.2,38.16 C1070,39.6 1067.61333,41.52 1066.04,43.92 C1064.46667,46.32 1063.68,49.0133333 1063.68,52 C1063.68,55.5733333 1064.6,58.4133333 1066.44,60.52 C1068.28,62.6266667 1070.49333,64.1866667 1073.08,65.2 C1075.66667,66.2133333 1079.06667,67.2266667 1083.28,68.24 C1086.64,69.04 1089.24,69.76 1091.08,70.4 C1092.92,71.04 1094.46667,71.96 1095.72,73.16 C1096.97333,74.36 1097.6,75.92 1097.6,77.84 C1097.6,80.4533333 1096.45333,82.5466667 1094.16,84.12 C1091.86667,85.6933333 1088.4,86.48 1083.76,86.48 C1080.24,86.48 1076.81333,85.88 1073.48,84.68 C1070.14667,83.48 1067.41333,81.92 1065.28,80 L1065.28,80 L1062.32,86.24 C1064.56,88.32 1067.64,90.0133333 1071.56,91.32 C1075.48,92.6266667 1079.54667,93.28 1083.76,93.28 Z M1172.76,92.64 L1172.76,85.68 L1140.12,85.68 L1140.12,67.6 L1168.2,67.6 L1168.2,60.8 L1140.12,60.8 L1140.12,43.6 L1171.64,43.6 L1171.64,36.64 L1132.12,36.64 L1132.12,92.64 L1172.76,92.64 Z M1219.76,92.64 L1219.76,43.6 L1238.96,43.6 L1238.96,36.64 L1192.64,36.64 L1192.64,43.6 L1211.84,43.6 L1211.84,92.64 L1219.76,92.64 Z M1278.28,93.28 C1283.02667,93.28 1287.02667,92.5733333 1290.28,91.16 C1293.53333,89.7466667 1295.96,87.8266667 1297.56,85.4 C1299.16,82.9733333 1299.96,80.2933333 1299.96,77.36 C1299.96,73.84 1299.04,71.04 1297.2,68.96 C1295.36,66.88 1293.16,65.3333333 1290.6,64.32 C1288.04,63.3066667 1284.65333,62.2933333 1280.44,61.28 C1277.18667,60.5333333 1274.61333,59.8266667 1272.72,59.16 C1270.82667,58.4933333 1269.24,57.56 1267.96,56.36 C1266.68,55.16 1266.04,53.6 1266.04,51.68 C1266.04,49.0666667 1267.17333,46.9333333 1269.44,45.28 C1271.70667,43.6266667 1275.10667,42.8 1279.64,42.8 C1282.2,42.8 1284.81333,43.1866667 1287.48,43.96 C1290.14667,44.7333333 1292.65333,45.8666667 1295,47.36 L1295,47.36 L1297.64,40.96 C1295.34667,39.36 1292.6,38.1333333 1289.4,37.28 C1286.2,36.4266667 1282.94667,36 1279.64,36 C1274.89333,36 1270.92,36.72 1267.72,38.16 C1264.52,39.6 1262.13333,41.52 1260.56,43.92 C1258.98667,46.32 1258.2,49.0133333 1258.2,52 C1258.2,55.5733333 1259.12,58.4133333 1260.96,60.52 C1262.8,62.6266667 1265.01333,64.1866667 1267.6,65.2 C1270.18667,66.2133333 1273.58667,67.2266667 1277.8,68.24 C1281.16,69.04 1283.76,69.76 1285.6,70.4 C1287.44,71.04 1288.98667,71.96 1290.24,73.16 C1291.49333,74.36 1292.12,75.92 1292.12,77.84 C1292.12,80.4533333 1290.97333,82.5466667 1288.68,84.12 C1286.38667,85.6933333 1282.92,86.48 1278.28,86.48 C1274.76,86.48 1271.33333,85.88 1268,84.68 C1264.66667,83.48 1261.93333,81.92 1259.8,80 L1259.8,80 L1256.84,86.24 C1259.08,88.32 1262.16,90.0133333 1266.08,91.32 C1270,92.6266667 1274.06667,93.28 1278.28,93.28 Z" id="DIGITALASSETS" fill-rule="nonzero"></path>
                <path d="M520.4,238 L520.4,147.12 L556.24,147.12 L556.24,126 L458.64,126 L458.64,147.12 L494.48,147.12 L494.48,238 L520.4,238 Z M652.249231,238 L652.249231,217.2 L591.289231,217.2 L591.289231,191.28 L643.289231,191.28 L643.289231,171.12 L591.289231,171.12 L591.289231,146.8 L650.169231,146.8 L650.169231,126 L565.529231,126 L565.529231,238 L652.249231,238 Z M694.178462,238 L694.178462,206.8 L718.018462,206.8 L739.618462,238 L767.458462,238 L742.338462,202 C749.698462,198.8 755.378462,194.186667 759.378462,188.16 C763.378462,182.133333 765.378462,174.96 765.378462,166.64 C765.378462,158.32 763.405129,151.12 759.458462,145.04 C755.511795,138.96 749.885129,134.266667 742.578462,130.96 C735.271795,127.653333 726.658462,126 716.738462,126 L716.738462,126 L668.258462,126 L668.258462,238 L694.178462,238 Z M715.298462,186.16 L694.178462,186.16 L694.178462,147.12 L715.298462,147.12 C723.085129,147.12 729.005129,148.8 733.058462,152.16 C737.111795,155.52 739.138462,160.346667 739.138462,166.64 C739.138462,172.826667 737.111795,177.626667 733.058462,181.04 C729.005129,184.453333 723.085129,186.16 715.298462,186.16 L715.298462,186.16 Z M805.547693,238 L805.547693,172.24 L838.347693,226.16 L850.027693,226.16 L882.987693,170.8 L883.147693,238 L907.467693,238 L907.147693,126 L885.867693,126 L844.587693,195.6 L802.667693,126 L781.227693,126 L781.227693,238 L805.547693,238 Z M955.316924,238 L955.316924,126 L929.396924,126 L929.396924,238 L955.316924,238 Z M1002.84615,238 L1002.84615,170 L1058.68615,238 L1079.96616,238 L1079.96616,126 L1054.36615,126 L1054.36615,194 L998.686155,126 L977.246155,126 L977.246155,238 L1002.84615,238 Z M1113.73539,238 L1123.65539,214 L1175.65539,214 L1185.57539,238 L1212.77539,238 L1162.69539,126 L1137.09539,126 L1087.17539,238 L1113.73539,238 Z M1167.49539,194.32 L1131.97539,194.32 L1149.73539,151.44 L1167.49539,194.32 Z M1301.90462,238 L1301.90462,216.88 L1245.74462,216.88 L1245.74462,126 L1219.82462,126 L1219.82462,238 L1301.90462,238 Z" id="TERMINAL" fill-rule="nonzero"></path>
            </g>
        </g>
    </g>
</svg>