<?xml version="1.0" encoding="UTF-8"?>
<svg width="195px" height="45px" viewBox="0 0 195 45" version="1.1" xmlns="http://www.w3.org/2000/svg" xmlns:xlink="http://www.w3.org/1999/xlink">
    <!-- Generator: Sketch 62 (91390) - https://sketch.com -->
    <title>Group 2 Copy 2</title>
    <desc>Created with Sketch.</desc>
    <g id="Logos" stroke="none" stroke-width="1" fill="none" fill-rule="evenodd">
        <g id="Artboard" transform="translate(-59.000000, -806.000000)">
            <g id="Group-2-Copy-2" transform="translate(59.000000, 804.000000)">
                <text id="Powered-by-Copy" font-family="Montserrat-Medium, Montserrat" font-size="12" font-weight="400" fill="#5E656E">
                    <tspan x="0" y="12">POWERED BY</tspan>
                </text>
                <g id="amberdataio_logo_color" transform="translate(0.000000, 26.000000)">
                    <path d="M31,17.4370672 C30.9912703,15.5302929 29.3364225,13.991607 27.3043008,14 C26.3616953,14.0041122 25.5031217,14.3414814 24.8543379,14.8911674 C23.6518132,15.9133332 23.3307536,16.9064109 21.3238414,16.9142946 C19.8839992,16.9202754 19.3091055,16.4613881 18.5791875,15.6017901 C17.9254777,14.6731416 16.808144,14.0601139 15.5398427,14.0503272 L15.5149229,14.0486961 L15.4908724,14.0486961 L15.4830487,14.0486961 L15.4758046,14.0486961 L15.4598676,14.0489679 L15.4311808,14.0508709 C14.3596299,14.0669102 13.4013772,14.5122048 12.7401335,15.2100505 C11.7685515,16.1302716 11.3396993,16.9558881 9.5107028,16.9634999 C7.95727276,16.9700244 7.41077601,16.4366495 6.58900254,15.4400378 C5.91269108,14.6190429 4.8518615,14.0930081 3.66150698,14.0976295 C1.63112378,14.1063288 -0.00894599086,15.6588792 0,17.5648379 C0.00872967275,19.4697093 1.66357746,21.0081233 3.69396065,21 C4.8585261,20.9953462 5.89327683,20.4842633 6.56408275,19.6909973 C7.37339633,18.7294546 8.13373963,18.1841182 9.5744511,18.1784093 C11.1359946,18.1721567 11.754353,18.796874 12.6294433,19.6692491 C13.2993799,20.4451165 14.3205117,20.9442379 15.464214,20.951578 L15.4873952,20.9510343 L15.5079685,20.9510343 L15.5152127,20.9510343 L15.5230363,20.9510343 L15.5479561,20.9510343 L15.5696885,20.9510343 C16.8046668,20.9325483 17.8892571,20.3423562 18.5418078,19.451767 C19.2934582,18.6092957 20.0451085,18.134641 21.3875897,18.129204 C23.0754707,18.1224077 23.661955,18.8534194 24.6599056,19.8339918 C25.3330296,20.495953 26.2846178,20.9061786 27.3364647,20.9021008 C29.3688762,20.8939452 31.008946,19.3413949 31,17.4370672 Z" id="rnd1" fill="#003366"></path>
                    <path d="M25,10.4590751 C24.991068,8.54121843 23.3531234,6.9915486 21.3418492,7 C20.4075206,7.00386712 19.5569832,7.3422158 18.9147758,7.89737044 C17.7239086,8.92473502 17.4053875,9.92664132 15.4185045,9.93485367 C13.8801337,9.94142355 13.3392217,9.40324109 12.5259885,8.39941857 C11.8559464,7.57407772 10.8056876,7.04438136 9.6268726,7.04930877 C7.6153114,7.05779486 5.99114073,8.62115194 6,10.5392824 C6.00864505,12.4587816 7.64745047,14.0084514 9.65901166,14 C10.8114268,13.9950379 11.8364334,13.4806713 12.5004495,12.6802412 C13.3019174,11.713648 14.0557507,11.1645157 15.4816348,11.1584933 C17.1520054,11.1516497 17.7328042,11.8858335 18.7225153,12.8735051 C19.3899748,13.5417164 20.3314773,13.9547974 21.3739883,13.950965 C23.3855494,13.9419314 25.0088592,12.3788481 25,10.4590751 Z" id="rnd2" fill="#8ABFD9"></path>
                    <path d="M19,3.48552538 C18.9914192,1.55199078 17.4173175,-0.00851198144 15.484839,0 C13.5518092,0.00858186501 11.9912156,1.58286998 12,3.51612887 C12.0085831,5.44773352 13.5826847,7.00851199 15.5159903,7 C17.4481931,6.99141814 19.008511,5.41685432 19,3.48552538 Z" id="rnd3" fill="#F26724"></path>
                    <path d="M47.453686,8.34289855 C48.4843609,9.23710145 49,10.5886957 49,12.3942029 L49,19.8333333 L46.0802575,19.8333333 L46.0802575,18.2881159 C45.7009957,18.8443478 45.1606155,19.2666667 44.4594187,19.5602899 C43.7582219,19.8524638 42.9137081,20 41.9246706,20 C40.9347279,20 40.0684904,19.8371014 39.3262597,19.5130435 C38.5849341,19.1881159 38.0110631,18.7362319 37.607362,18.1576812 C37.2027557,17.58 37,16.9266667 37,16.197971 C37,15.0565217 37.4414161,14.1402899 38.3242482,13.4524638 C39.2070804,12.7634783 40.5965001,12.4194203 42.492809,12.4194203 L45.9070703,12.4194203 L45.9070703,12.2292754 C45.9070703,11.342029 45.6309967,10.66 45.078246,10.1849275 C44.525797,9.7084058 43.7060243,9.47130435 42.6165141,9.47130435 C41.8748869,9.47130435 41.1453284,9.58289855 40.4284421,9.80405797 C39.7109524,10.0257971 39.1050991,10.3350725 38.6105803,10.7307246 L37.3982701,8.56811594 C38.0916222,8.06086957 38.9237655,7.67391304 39.8962084,7.40434783 C40.868953,7.13507246 41.900533,7 42.9885346,7 C44.9334205,7.00086957 46.4227094,7.4484058 47.453686,8.34289855 Z M44.6326059,17.3255072 C45.2351403,16.986087 45.6590566,16.4994203 45.9067686,15.8649275 L45.9067686,14.3921739 L42.7157799,14.3921739 C40.9347279,14.3921739 40.0443528,14.9542029 40.0443528,16.0785507 C40.0443528,16.6188406 40.2667203,17.046087 40.7120587,17.3631884 C41.1576989,17.6805797 41.775621,17.8391304 42.5676355,17.8391304 C43.3421503,17.8376812 44.0309766,17.6684058 44.6326059,17.3255072 Z" id="Shape" fill="#003366" fill-rule="nonzero"></path>
                    <path d="M70.5468353,8.40543118 C71.5159123,9.3442377 72,10.7540626 72,12.6316756 L72,19.9979444 L68.9202885,19.9979444 L68.9202885,13.0184157 C68.9202885,11.8951955 68.6651733,11.0471276 68.1564455,10.4771484 C67.6468162,9.90775653 66.916027,9.62291376 65.9643784,9.62291376 C64.9294944,9.62291376 64.1001448,9.95532821 63.4757287,10.621919 C62.8513126,11.2888035 62.539405,12.2387688 62.539405,13.4750451 L62.539405,20 L59.4608955,20 L59.4608955,13.0184157 C59.4608955,11.8951955 59.2051793,11.0485959 58.6964515,10.4789103 C58.1868222,9.90922479 57.456033,9.62438202 56.5040839,9.62438202 C55.4523725,9.62438202 54.6191166,9.95209803 54.0034146,10.6107602 C53.3871118,11.2700097 53.079411,12.2229115 53.079411,13.476807 L53.079411,20 L50,20 L50,7.14390075 L52.9321714,7.14390075 L52.9321714,8.78101252 C53.4246729,8.20339837 54.0409758,7.76262622 54.7792772,7.45722779 C55.5184801,7.15329762 56.3397164,7 57.2432868,7 C58.2291911,7 59.1027126,7.18207555 59.8662551,7.54179966 C60.630699,7.90269838 61.2346819,8.43743928 61.6767012,9.14308585 C62.2187833,8.46944739 62.9174202,7.94351606 63.7711094,7.5655855 C64.6241976,7.1885359 65.5692354,7 66.6038189,7 C68.2634196,6.99736823 69.5774579,7.46662466 70.5468353,8.40543118 Z" id="Path" fill="#003366"></path>
                    <path d="M84.7527372,7.67200782 C85.7642883,8.21660967 86.5593151,8.985149 87.1360107,9.97879824 C87.7112005,10.9733268 88,12.1182218 88,13.415828 C88,14.7134343 87.7115016,15.8633122 87.1360107,16.8654617 C86.5593151,17.8658525 85.7645895,18.6393747 84.7527372,19.1842697 C83.7405838,19.7285784 82.5926133,20 81.3085246,20 C80.402977,20 79.576631,19.8478749 78.8273785,19.5445042 C78.0784272,19.2396678 77.4487298,18.7818271 76.9388888,18.1736199 L76.9388888,19.8314607 L74,19.8314607 L74,2 L77.0864506,2 L77.0864506,8.56072301 C77.6128547,8 78.2350233,7.57440156 78.9508486,7.28685882 C79.6663727,6.99872985 80.4526662,6.85393258 81.3085246,6.85393258 C82.5926133,6.85481192 83.7405838,7.12799218 84.7527372,7.67200782 Z M83.765579,16.3234978 C84.4976661,15.5866146 84.8644626,14.6161212 84.8644626,13.4155349 C84.8644626,12.21319 84.497365,11.2447484 83.765579,10.5072789 C83.0328895,9.77127504 82.098733,9.4025403 80.9625073,9.4025403 C80.2225903,9.4025403 79.5558519,9.56697606 78.9628944,9.89408891 C78.3705393,10.2226673 77.9007507,10.6913532 77.5556368,11.2998534 C77.2096195,11.9098192 77.0367614,12.6147533 77.0367614,13.4170005 C77.0367614,14.2186615 77.2096195,14.9224231 77.5556368,15.5309233 C77.9007507,16.1403029 78.3696358,16.6092819 78.9628944,16.9378603 C79.5552496,17.2664387 80.2216869,17.4302882 80.9625073,17.4302882 C82.098733,17.4288227 83.0328895,17.060381 83.765579,16.3234978 Z" id="Shape" fill="#003366" fill-rule="nonzero"></path>
                    <path d="M102.953765,14.4387584 L92.9761945,14.4387584 C93.1516064,15.3747631 93.6081421,16.1145227 94.346092,16.6626753 C95.0849131,17.2093786 96.0011791,17.4821504 97.096342,17.4821504 C98.4932482,17.4821504 99.6438808,17.0224095 100.549111,16.1035075 L102.144662,17.9331951 C101.573412,18.6149798 100.850273,19.1289272 99.9778605,19.4788057 C99.1051571,19.8275247 98.1209335,20 97.0251898,20 C95.6277027,20 94.3972054,19.7240395 93.3334075,19.1695097 C92.2699001,18.6149798 91.4483101,17.8424644 90.8695088,16.8513836 C90.288965,15.8620421 90,14.7405178 90,13.48855 C90,12.2525253 90.281995,11.1405668 90.8451138,10.1497759 C91.4082325,9.15956474 92.189745,8.38675943 93.1905223,7.83251946 C94.190138,7.27798961 95.3169564,7 96.5712678,7 C97.8090255,7 98.9155147,7.27335162 99.8921874,7.82005485 C100.869441,8.36820746 101.630915,9.13637479 102.178641,10.1257163 C102.726368,11.1156376 103,12.2606417 103,13.5610186 C103.001103,13.7665396 102.98513,14.0584432 102.953765,14.4387584 Z M94.1555784,10.2196357 C93.4960411,10.7828617 93.0958463,11.5313176 92.9523803,12.4661627 L100.166922,12.4661627 C100.039719,11.5475506 99.65027,10.8025732 99.0000261,10.2323901 C98.3477493,9.66220706 97.539228,9.37697059 96.5715582,9.37697059 C95.619571,9.37697059 94.8139539,9.65756907 94.1555784,10.2196357 Z" id="Shape" fill="#003366" fill-rule="nonzero"></path>
                    <path d="M112,7 L112,9.86533249 C111.75742,9.81776292 111.538877,9.7936845 111.342714,9.7936845 C110.240054,9.7936845 109.379697,10.1340125 108.760262,10.8167239 C108.140551,11.4997289 107.830834,12.4828334 107.830834,13.7669181 L107.830834,20 L105,20 L105,7.14476419 L107.695453,7.14476419 L107.695453,9.022294 C108.511328,7.67478316 109.946085,7 112,7 Z" id="Path" fill="#003366"></path>
                    <path d="M127,2 L127,19.8297186 L124.036956,19.8297186 L124.036956,18.1720399 C123.527104,18.7819461 122.897092,19.2397421 122.148425,19.5427902 C121.398856,19.8473036 120.571588,20 119.666624,20 C118.39877,20 117.259207,19.7268464 116.247031,19.1825909 C115.235459,18.6392145 114.440415,17.866061 113.863707,16.8640094 C113.287601,15.8619578 113,14.7121923 113,13.4164713 C113,12.1172333 113.287601,10.9724502 113.863707,9.97889801 C114.440415,8.98563892 115.235459,8.21688159 116.247031,7.67233294 C117.259207,7.12778429 118.399071,6.85433763 119.666624,6.85433763 C120.539365,6.85433763 121.33742,6.99882767 122.061994,7.28634232 C122.785364,7.57444314 123.402125,8.00791325 123.912881,8.58528722 L123.912881,2 L127,2 Z M122.036999,16.9349355 C122.629367,16.6063892 123.098563,16.1380422 123.443684,15.528136 C123.789709,14.9182298 123.962571,14.2151231 123.962571,13.4144197 C123.962571,12.612544 123.79001,11.9073857 123.443684,11.2977726 C123.098563,10.6899179 122.629367,10.2221571 122.036999,9.89214537 C121.444029,9.56506448 120.777276,9.40064478 120.036741,9.40064478 C119.295001,9.40064478 118.628549,9.56506448 118.035278,9.89214537 C117.44291,10.2209848 116.974918,10.6893318 116.62799,11.2977726 C116.282869,11.9076788 116.110007,12.612544 116.110007,13.4144197 C116.110007,14.2162954 116.282869,14.9199883 116.62799,15.528136 C116.974918,16.1380422 117.44291,16.6063892 118.035278,16.9349355 C118.62885,17.2623095 119.295302,17.4273154 120.036741,17.4273154 C120.777577,17.4273154 121.444029,17.2623095 122.036999,16.9349355 Z" id="Shape" fill="#003366" fill-rule="nonzero"></path>
                    <path d="M140.454319,8.34289855 C141.48427,9.23710145 142,10.5886957 142,12.3942029 L142,19.8333333 L139.081856,19.8333333 L139.081856,18.2881159 C138.70132,18.8443478 138.160845,19.2666667 137.46043,19.5602899 C136.760015,19.8524638 135.913844,20 134.924632,20 C133.935421,20 133.069031,19.8371014 132.327575,19.5130435 C131.584308,19.1881159 131.011241,18.7362319 130.606564,18.1576812 C130.20249,17.58 130,16.9266667 130,16.197971 C130,15.0565217 130.44089,14.1402899 131.324481,13.4524638 C132.205658,12.7634783 133.595323,12.4194203 135.492871,12.4194203 L138.906526,12.4194203 L138.906526,12.2292754 C138.906526,11.342029 138.630404,10.66 138.077857,10.1849275 C137.525915,9.7084058 136.704489,9.47130435 135.616296,9.47130435 C134.873934,9.47130435 134.144549,9.58289855 133.426631,9.80405797 C132.709015,10.0257971 132.102452,10.3350725 131.609053,10.7307246 L130.395624,8.56811594 C131.088797,8.06086957 131.921086,7.67391304 132.895209,7.40434783 C133.868427,7.13507246 134.898378,7 135.986571,7 C137.93361,7.00086957 139.422256,7.4484058 140.454319,8.34289855 Z M137.633949,17.3255072 C138.235383,16.986087 138.659676,16.4994203 138.907431,15.8649275 L138.907431,14.3921739 L135.716786,14.3921739 C133.934515,14.3921739 133.043682,14.9542029 133.043682,16.0785507 C133.043682,16.6188406 133.268502,17.046087 133.71241,17.3631884 C134.157224,17.6805797 134.776763,17.8391304 135.568012,17.8391304 C136.342965,17.8376812 137.030404,17.6684058 137.633949,17.3255072 Z" id="Shape" fill="#003366" fill-rule="nonzero"></path>
                    <path d="M153,19.1820302 C152.66257,19.4538538 152.254294,19.6584851 151.771811,19.7956464 C151.289328,19.93253 150.780243,20 150.245675,20 C148.898195,20 147.857623,19.6509884 147.122558,18.9546313 C146.388052,18.2566082 146.01954,17.2381719 146.01954,15.903765 L146.01954,10.052199 L144,10.052199 L144,7.7762661 L146.01954,7.7762661 L146.01954,5 L148.890355,5 L148.890355,7.7762661 L152.172526,7.7762661 L152.172526,10.052199 L148.890355,10.052199 L148.890355,15.8346291 C148.890355,16.4274211 149.036248,16.8788872 149.327194,17.1901377 C149.617019,17.4997223 150.037337,17.6565971 150.590386,17.6565971 C151.231363,17.6565971 151.76761,17.4897268 152.196329,17.1557086 L153,19.1820302 Z" id="Path" fill="#003366"></path>
                    <path d="M165.453414,8.34289855 C166.48427,9.23710145 167,10.5886957 167,12.3942029 L167,19.8333333 L164.081856,19.8333333 L164.081856,18.2881159 C163.701622,18.8443478 163.161147,19.2666667 162.459826,19.5602899 C161.760015,19.8524638 160.914749,20 159.923727,20 C158.934515,20 158.068125,19.8371014 157.326066,19.5130435 C156.582497,19.1881159 156.011543,18.7362319 155.606865,18.1576812 C155.202791,17.58 155,16.9266667 155,16.197971 C155,15.0565217 155.441796,14.1402899 156.324481,13.4524638 C157.205658,12.7634783 158.595323,12.4194203 160.493776,12.4194203 L163.907129,12.4194203 L163.907129,12.2292754 C163.907129,11.342029 163.631611,10.66 163.079065,10.1849275 C162.526217,9.7084058 161.704791,9.47130435 160.616598,9.47130435 C159.874538,9.47130435 159.144851,9.58289855 158.427235,9.80405797 C157.710223,10.0257971 157.102754,10.3350725 156.609355,10.7307246 L155.395926,8.56811594 C156.089098,8.06086957 156.921388,7.67391304 157.895813,7.40434783 C158.868729,7.13507246 159.899585,7 160.987476,7 C162.934515,7.00086957 164.423463,7.4484058 165.453414,8.34289855 Z M162.633044,17.3255072 C163.234779,16.986087 163.659676,16.4994203 163.907431,15.8649275 L163.907431,14.3921739 L160.716786,14.3921739 C158.934515,14.3921739 158.043682,14.9542029 158.043682,16.0785507 C158.043682,16.6188406 158.268502,17.046087 158.713316,17.3631884 C159.157525,17.6805797 159.77616,17.8391304 160.568917,17.8391304 C161.342965,17.8376812 162.032214,17.6684058 162.633044,17.3255072 Z" id="Shape" fill="#003366" fill-rule="nonzero"></path>
                    <path d="M169.585417,19.4348273 C169.194643,19.0559882 169,18.5781043 169,18 C169,17.406025 169.189286,16.9249082 169.571726,16.5557678 C169.954464,16.1845702 170.429464,16 170.999702,16 C171.570536,16 172.046429,16.1845702 172.427381,16.5557678 C172.810417,16.9249082 173,17.4063189 173,18 C173,18.5781043 172.80506,19.0559882 172.414583,19.4348273 C172.024107,19.8121969 171.552083,20 170.99881,20 C170.445536,20 169.975595,19.8121969 169.585417,19.4348273 Z" id="Path" fill="#003366"></path>
                    <path d="M176.574956,4.99677705 C176.191754,4.66234833 176,4.24630308 176,3.7486413 C176,3.25097952 176.191754,2.83635617 176.574956,2.50221183 C176.958159,2.16778311 177.433427,2 178.000457,2 C178.566878,2 179.040927,2.1601049 179.425044,2.47775531 C179.808246,2.79654323 180,3.19723205 180,3.67783114 C180,4.19084934 179.813429,4.62225101 179.438153,4.97288928 C179.064096,5.32352755 178.584254,5.49756699 178.001372,5.49756699 C177.433732,5.49756699 176.958159,5.33120576 176.574956,4.99677705 Z M176.425272,7.54935541 L179.549729,7.54935541 L179.549729,20 L176.425272,20 L176.425272,7.54935541 Z" id="Shape" fill="#003366" fill-rule="nonzero"></path>
                    <path d="M184.394812,19.1678075 C183.328232,18.6150416 182.497535,17.8425606 181.897621,16.851524 C181.299507,15.8622266 181,14.7407523 181,13.4888403 C181,12.2357689 181.299507,11.1206716 181.897621,10.1371714 C182.497535,9.15541038 183.328532,8.385828 184.394812,7.83161274 C185.461693,7.27797721 186.658521,7 187.988596,7 C189.332776,7 190.537406,7.27797721 191.605188,7.83161274 C192.672369,8.38611786 193.501565,9.15541038 194.102379,10.1371714 C194.700793,11.1206716 195,12.2357689 195,13.4888403 C195,14.7404624 194.700793,15.8604874 194.102379,16.851524 C193.501565,17.8408214 192.671468,18.6138821 191.605188,19.1678075 C190.538307,19.7240518 189.332776,20 187.988596,20 C186.658521,20 185.462594,19.7240518 184.394812,19.1678075 Z M190.793398,16.3645566 C191.532862,15.6358447 191.900793,14.6761132 191.900793,13.4888403 C191.900793,12.2998283 191.532562,11.3421258 190.793398,10.6128342 C190.055434,9.88499186 189.1206,9.52034605 187.989496,9.52034605 C186.857792,9.52034605 185.925059,9.884702 185.195798,10.6128342 C184.466538,11.3421258 184.101608,12.2998283 184.101608,13.4888403 C184.101608,14.6778523 184.466538,15.6358447 185.195798,16.3645566 C185.925959,17.0932685 186.857792,17.4576245 187.989496,17.4576245 C189.1203,17.4576245 190.055434,17.0932685 190.793398,16.3645566 Z" id="Shape" fill="#003366" fill-rule="nonzero"></path>
                </g>
            </g>
        </g>
    </g>
</svg>